Genre:Animation | Adventure | Comedy | Family
Language:English
IMDb:http://www.imdb.com/title/tt1213012/
Source:DVD


Format : MPEG-4
Format profile : Base Media
Codec ID : isom
File size : 697 MiB
Duration : 1h 27mn
Overall bit rate : 1 108 Kbps


Video
Codec ID : avc1
Codec ID/Info : Advanced Video Coding
Duration : 1h 27mn
Bit rate mode : Variable
Bit rate : 941 Kbps
Width : 720 pixels
Height : 384 pixels
Display aspect ratio : 1.875
Frame rate mode : Constant
Frame rate : 23.976 fps
Original frame rate : 23.000 fps
Color space : YUV
Chroma subsampling : 4:2:0
Bit depth : 8 bits
Scan type : Progressive
Bits/(Pixel*Frame) : 0.142
Stream size : 592 MiB (85%)

Audio
ID : 1
Format : AAC
Format/Info : Advanced Audio Codec
Format version : Version 4
Format profile : LC
Codec ID : 40
Duration : 1h 27mn
Bit rate mode : Constant
Bit rate : 160 Kbps
Channel(s) : 2 channels
Channel positions : Front: L R
Sampling rate : 48.0 KHz
Stream size : 101 MiB (14%)
Language : English


Plot:
Two young wolves at opposite ends of their pack's social order are thrown together into a foreign land and need each other to return home, but love complicates everything






================================== 
http://thepiratebay.org/user/hiest
==================================





Screenshots:
 
http://rapidhdd.com/images/953886vlcsnap-2010-12-24-08h45m34s77.png
 
http://www.rapidhdd.com/images/89144vlcsnap-2010-12-24-08h46m37s195.png
 
http://www.rapidhdd.com/images/815833vlcsnap-2010-12-24-08h46m08s168.png
 
http://www.rapidhdd.com/images/567394vlcsnap-2010-12-24-08h47m31s234.png
 
http://www.rapidhdd.com/images/45150vlcsnap-2010-12-24-08h46m14s234.png